HIERARCHY
ROOT Hips
{
	OFFSET	0.000000	0.000000	0.000000
	CHANNELS 6 Xposition Yposition Zposition Zrotation Xrotation Yrotation
	JOINT LeftHip
	{
		OFFSET	5.000000	0.000000	0.000000
		CHANNELS 3 Zrotation Xrotation Yrotation
		JOINT LeftKnee
		{
			OFFSET	0.000000	-15.000000	0.000000
			CHANNELS 3 Zrotation Xrotation Yrotation
			JOINT LeftAnkle
			{
				OFFSET	0.000000	-15.500000	0.000000
				CHANNELS 3 Zrotation Xrotation Yrotation
				End Site
				{
					OFFSET	0.000000	-4.500000	-3.000000
				}
			}
		}
	}
	JOINT RightHip
	{
		OFFSET	-5.000000	0.000000	0.000000
		CHANNELS 3 Zrotation Xrotation Yrotation
		JOINT RightKnee
		{
			OFFSET	0.000000	-15.000000	0.000000
			CHANNELS 3 Zrotation Xrotation Yrotation
			JOINT RightAnkle
			{
				OFFSET	0.000000	-15.500000	0.000000
				CHANNELS 3 Zrotation Xrotation Yrotation
				End Site
				{
					OFFSET	0.000000	-4.500000	-3.000000
				}
			}
		}
	}
	JOINT Chest
	{
		OFFSET	0.000000	3.000000	-1.000000
		CHANNELS 3 Zrotation Xrotation Yrotation
		JOINT LeftCollar
		{
			OFFSET	0.000000	18.000000	1.000000
			CHANNELS 3 Zrotation Xrotation Yrotation
			JOINT LeftShoulder
			{
				OFFSET	7.500000	0.000000	0.000000
				CHANNELS 3 Zrotation Xrotation Yrotation
				JOINT LeftElbow
				{
					OFFSET	0.000000	-10.000000	0.000000
					CHANNELS 3 Zrotation Xrotation Yrotation
					JOINT LeftWrist
					{
						OFFSET	0.000000	-11.000000	0.000000
						CHANNELS 3 Zrotation Xrotation Yrotation
						End Site
						{
							OFFSET	0.000000	-7.000000	0.000000
						}
					}
				}
			}
		}
		JOINT RightCollar
		{
			OFFSET	0.000000	18.000000	1.000000
			CHANNELS 3 Zrotation Xrotation Yrotation
			JOINT RightShoulder
			{
				OFFSET	-7.500000	0.000000	0.000000
				CHANNELS 3 Zrotation Xrotation Yrotation
				JOINT RightElbow
				{
					OFFSET	0.000000	-10.000000	0.000000
					CHANNELS 3 Zrotation Xrotation Yrotation
					JOINT RightWrist
					{
						OFFSET	0.000000	-11.000000	0.000000
						CHANNELS 3 Zrotation Xrotation Yrotation
						End Site
						{
							OFFSET	0.000000	-7.000000	0.000000
						}
					}
				}
			}
		}
		JOINT Neck
		{
			OFFSET	0.000000	18.000000	1.000000
			CHANNELS 3 Zrotation Xrotation Yrotation
			JOINT Head
			{
				OFFSET	0.000000	2.000000	0.000000
				CHANNELS 3 Zrotation Xrotation Yrotation
				End Site
				{
					OFFSET	0.000000	7.000000	0.000000
				}
			}
		}
	}
}
MOTION
Frames:    17
Frame Time: 0.033333
14.950251	34.927708	61.880798	-175.864838	-177.322891	-50.264080	14.339849	-7.561152	14.858146	1.000000	-2.087621	0.000000	-5.605367	2.841492	12.955697	8.723063	10.663230	-10.272988	-1.000000	-3.637891	0.000000	5.455575	-2.637946	-27.376629	5.281513	-0.296095	0.299445	4.834560	-0.883078	0.074688	1.535874	20.377638	21.681898	-2.772186	-16.493080	-5.164248	-19.003256	11.099922	-37.057949	4.834560	-0.883078	0.074688	-8.895178	11.013785	-15.369906	3.400586	-22.910007	5.376429	19.383841	3.181265	9.129344	0.000000	0.080566	0.000000	8.721786	9.095407	5.825042	
14.903037	34.757282	61.804474	-176.069839	-177.040619	-50.093754	14.797103	-8.733386	15.273176	1.000000	-1.198749	0.000000	-7.311095	5.684006	13.532713	8.562983	10.842786	-10.102133	-1.000000	-3.652586	0.000000	5.580512	-3.089993	-27.571800	4.637811	-0.459563	0.277076	5.076662	-1.123506	0.099802	1.278651	20.361176	21.771427	-2.472430	-13.262949	-5.087252	-17.822632	11.335451	-36.781395	5.076662	-1.123506	0.099802	-8.885946	10.613863	-14.516767	3.374866	-22.657806	5.366468	19.292891	3.118879	9.302622	0.000000	0.080566	0.000000	8.918912	9.343754	5.723022	
14.710745	34.598225	61.294361	-176.294632	-176.744324	-49.943401	15.215798	-10.496656	15.879765	1.000000	0.590748	0.000000	-8.568047	7.605448	14.517992	8.566896	11.018870	-9.961638	-1.000000	-3.639810	0.000000	6.006171	-3.324152	-27.608448	4.396191	-0.460374	0.268680	4.834917	-1.123917	0.095062	1.278651	20.361176	21.997015	-2.260521	-10.924979	-5.042844	-16.734346	11.721659	-36.712421	4.834917	-1.123917	0.095062	-8.265206	10.326386	-14.325213	3.379254	-22.700899	5.368161	19.495579	3.392377	9.301430	0.000000	0.080566	0.000000	8.521647	9.343019	6.028840	
14.462773	34.476601	61.139786	-176.446136	-176.498367	-49.981300	15.310041	-12.020021	16.362429	1.000000	2.296264	0.000000	-8.702143	9.332899	15.107609	8.324547	11.200255	-9.612201	-1.000000	-3.446230	0.000000	6.626635	-3.753576	-27.658546	4.557272	-0.459837	0.113145	4.351426	-1.124679	0.085575	1.278651	20.361176	21.997015	-2.215518	-10.423385	-5.034508	-16.261667	11.712280	-36.669209	4.351426	-1.124679	0.085575	-8.013885	10.030589	-13.499084	3.379254	-22.700899	5.368161	19.495579	3.392377	9.301430	0.000000	0.080566	0.000000	9.631634	9.600164	5.283428	
14.428315	34.357807	60.936901	-176.506195	-176.333511	-50.406593	15.356321	-12.696811	16.417532	1.000000	3.288234	0.000000	-8.278712	11.632609	15.235703	8.003551	11.559563	-9.344481	-1.000000	-3.173926	0.000000	7.034403	-4.066523	-27.687782	4.798890	-0.459002	0.121539	3.626404	-1.286482	0.081527	1.278651	20.361176	21.997015	-2.235646	-10.647940	-5.038188	-16.392941	11.826097	-36.663467	3.626404	-1.286482	0.081527	-8.006577	9.629972	-12.188377	3.379254	-22.700899	5.368161	19.656437	3.393438	9.305240	0.000000	0.080566	0.000000	9.417361	9.866515	5.539588	
14.279997	34.467907	60.609730	-176.441620	-176.250137	-50.914978	15.132999	-13.052043	16.470221	1.000000	4.092965	0.000000	-7.684378	13.684858	14.683969	7.517319	11.922183	-8.877543	-1.000000	-2.592972	0.000000	7.412868	-4.533617	-27.889410	5.280590	-0.054398	0.299442	2.901318	-1.448337	0.073395	0.975944	20.947046	22.096142	-2.296730	-11.327325	-5.049831	-16.805515	11.685243	-36.676273	2.901318	-1.448337	0.073395	-8.001299	9.329505	-11.543658	3.379254	-22.700899	5.368161	19.656437	3.393438	9.305240	0.000000	0.080566	0.000000	9.486613	9.895162	5.173570	
14.166272	34.541870	60.375736	-176.408325	-176.207230	-51.408417	15.176419	-13.644804	16.658278	1.000000	5.366534	0.000000	-8.079486	15.161217	14.970481	6.947569	12.286020	-8.386851	-1.000000	-2.319285	0.000000	7.820049	-4.849812	-27.912403	5.520232	0.429937	1.435761	2.175989	-1.449150	0.055057	0.459749	20.912138	22.731710	-2.409519	-12.573186	-5.073187	-17.371979	11.362195	-36.709896	2.175989	-1.449150	0.055057	-7.994535	8.928878	-10.796739	3.372465	-22.634220	5.365544	19.741896	3.617973	9.727887	0.000000	0.080566	0.000000	9.889773	10.506909	5.371028	
14.095950	34.566330	60.226837	-176.488190	-176.235245	-51.702435	15.235355	-14.406718	16.901463	1.000000	6.736470	0.000000	-8.579288	16.282370	15.332646	6.374928	12.560899	-7.801357	-1.000000	-1.873138	0.000000	8.298369	-5.206624	-27.935843	5.518954	0.752200	2.402571	1.531494	-1.771828	0.047364	0.177300	21.195362	23.058765	-2.517437	-13.754019	-5.097764	-17.784628	11.222003	-36.724010	1.531494	-1.771828	0.047364	-7.991269	8.728562	-9.915677	3.367910	-22.589441	5.363793	19.670534	3.850353	10.061904	0.000000	0.080566	0.000000	9.736637	10.760073	5.331752	
14.213190	34.589813	59.965134	-176.654312	-176.301788	-51.805557	14.965016	-15.194311	16.898022	1.000000	8.972983	0.000000	-6.881685	15.047837	15.517312	5.557092	13.103756	-7.494442	-1.000000	-1.677234	0.000000	8.688462	-5.602490	-27.946270	5.517356	1.155029	3.208261	0.886735	-1.933363	0.029918	0.193607	20.994522	23.052469	-2.609970	-14.757097	-5.120552	-18.257582	11.232633	-36.767410	0.886735	-1.933363	0.029918	-7.746767	8.732333	-8.712068	3.389205	-22.798531	5.372009	20.149708	3.900807	10.068336	0.000000	0.080566	0.000000	9.288344	10.591971	5.480680	
13.988504	34.542828	59.711067	-176.936081	-176.629349	-51.772877	14.223475	-16.363474	17.013018	1.000000	11.277229	0.000000	-6.300149	13.426993	15.560898	4.653065	13.645818	-7.313343	-1.000000	-1.488879	0.000000	9.004279	-5.810458	-27.936016	5.355186	1.476662	4.088932	0.161258	-2.255850	0.006347	0.209868	20.793680	23.046247	-2.682469	-15.536606	-5.139495	-18.512653	11.089355	-36.767509	0.161258	-2.255850	0.006347	-7.502258	8.735947	-8.072436	3.461172	-23.500370	5.400301	20.471319	3.903155	10.076382	0.000000	0.080566	0.000000	9.157683	10.843271	5.839895	
13.961671	34.504814	59.401371	-177.362671	-176.911484	-51.714931	13.541817	-17.275351	17.047939	1.000000	13.450235	0.000000	-5.830559	11.708322	15.452213	3.578310	14.097891	-7.071547	-1.000000	-0.998715	0.000000	9.505417	-6.233449	-27.774927	5.032219	1.797712	4.883444	-0.725787	-2.497359	-0.031627	0.258386	20.191145	23.027985	-2.858849	-17.408077	-5.189515	-18.922003	11.101639	-36.458935	-0.725787	-2.497359	-0.031627	-6.902041	9.547021	-7.757294	3.565327	-24.502945	5.442670	20.953732	3.906763	10.088426	0.000000	0.080566	0.000000	9.525067	10.629647	5.645691	
13.813353	34.486771	59.074200	-177.662750	-177.198441	-51.592045	12.904922	-17.755522	16.967218	1.000000	15.172060	0.000000	-5.529318	10.284442	15.376702	2.666142	14.633817	-6.855313	-1.000000	-0.470081	0.000000	10.062286	-6.443823	-27.772245	4.790078	2.038541	5.600175	-1.532216	-2.496667	-0.066761	0.810611	19.724451	22.840553	-3.082323	-19.724762	-5.260684	-19.459538	10.965652	-36.312092	-1.532216	-2.496667	-0.066761	-6.661165	9.851499	-7.434671	3.692534	-25.705944	5.496643	21.436152	3.910472	10.100438	0.000000	0.080566	0.000000	8.729581	10.600342	5.717763	
13.940006	34.491077	58.691872	-177.824127	-177.453644	-51.426010	12.314541	-17.800264	16.786957	1.000000	16.572781	0.000000	-5.325858	8.589176	15.305455	1.749367	15.343611	-6.620692	-1.000000	-0.152004	0.000000	10.526851	-6.417168	-27.502274	4.466525	2.601399	6.233583	-2.177359	-2.495758	-0.094860	1.081766	19.540716	22.751148	-3.312038	-22.037823	-5.342579	-19.905586	10.477942	-36.368168	-2.177359	-2.495758	-0.094860	-6.661165	9.851499	-7.096292	3.758338	-26.318871	5.525503	22.235863	3.979468	10.112170	0.000000	0.080566	0.000000	8.610172	10.390241	5.685536	
13.865775	34.476646	58.303463	-178.031799	-177.694809	-51.203541	11.490767	-18.119652	16.593710	1.000000	17.870991	0.000000	-5.249922	7.065633	15.257319	0.744695	15.694660	-6.347387	-1.000000	0.578656	0.000000	11.938428	-6.432764	-26.962770	4.144205	2.842057	6.222410	-2.661552	-2.655827	-0.123415	1.081766	19.540716	22.751148	-3.554130	-24.395922	-5.438036	-20.497305	10.030427	-36.236465	-2.661552	-2.655827	-0.123415	-6.661165	9.851499	-6.081157	3.794670	-26.654535	5.541707	22.372654	3.954766	10.373742	0.000000	0.080566	0.000000	8.827058	10.686109	5.957505	
14.018367	34.460789	57.931843	-178.258026	-177.784470	-50.850113	11.003204	-18.414019	16.498743	1.000000	19.379232	0.000000	-4.726290	5.394897	15.035021	-0.180611	16.130280	-6.080919	-1.000000	1.272947	0.000000	13.371737	-6.237056	-25.744919	3.822691	2.841081	6.775156	-3.226781	-2.895800	-0.163188	1.104249	19.239351	22.521286	-3.752445	-26.264252	-5.522893	-20.881411	9.653311	-36.097786	-3.226781	-2.895800	-0.163188	-6.415869	9.854780	-5.559167	3.811734	-26.811499	5.549383	22.356588	3.937380	10.545465	0.000000	0.080566	0.000000	8.364368	10.369890	5.801685	
13.966656	34.468689	57.438187	-178.403198	-177.681168	-50.466732	10.351050	-18.806011	16.364351	1.000000	20.729120	0.000000	-4.469501	3.746276	14.754769	-1.023289	16.385616	-6.719641	-1.000000	2.119041	0.000000	15.030673	-5.637454	-24.502861	3.822691	2.841081	7.097423	-3.630656	-3.055391	-0.193778	1.119201	19.038445	21.954544	-3.876174	-27.400331	-5.578744	-21.240524	9.664538	-35.957561	-3.630656	-3.055391	-0.193778	-6.415869	9.854780	-5.220788	3.838094	-27.053118	5.561322	22.651484	3.947479	10.807155	0.000000	0.080566	0.000000	8.342052	9.843019	5.597820	
13.823773	34.469872	56.958317	-178.486145	-177.533447	-50.001759	9.611317	-19.202765	16.193041	1.000000	21.855701	0.000000	-4.124014	2.044559	14.728539	-1.952292	16.635635	-7.245776	-1.000000	3.039198	0.000000	16.822990	-4.935913	-23.274700	3.822691	2.841081	7.419688	-3.953987	-3.215001	-0.222103	1.374283	19.055214	21.871300	-3.965044	-28.202152	-5.620195	-21.398560	9.668953	-35.971928	-3.953987	-3.215001	-0.222103	-6.418592	10.055599	-5.205039	3.866293	-27.310440	5.574203	22.635214	3.930575	10.978967	0.000000	0.080566	0.000000	8.561725	9.541815	5.628370	
